<svg version="1.0" xmlns="http://www.w3.org/2000/svg"
 width="900.000000pt" height="900.000000pt" viewBox="0 0 900.000000 900.000000"
 preserveAspectRatio="xMidYMid meet">

<g transform="translate(0.000000,900.000000) scale(0.100000,-0.100000)"
fill="#056188" stroke="none">
<path d="M0 4500 l0 -4500 4500 0 4500 0 0 4500 0 4500 -4500 0 -4500 0 0
-4500z m3452 1746 c142 -36 247 -81 591 -252 425 -211 566 -254 842 -254 227
0 376 38 511 130 61 41 75 46 85 34 15 -18 4 -35 -96 -142 -158 -169 -386
-338 -590 -437 -212 -104 -374 -141 -575 -132 -203 9 -355 59 -620 205 -522
287 -654 332 -975 332 -224 0 -410 -37 -558 -112 -57 -28 -77 -29 -77 -4 0 16
291 268 436 377 196 147 386 238 572 273 117 23 330 14 454 -18z m-967 -1076
c229 -45 398 -111 787 -308 401 -204 563 -252 843 -252 252 0 381 38 745 219
344 171 515 221 757 221 271 0 542 -88 942 -308 221 -120 307 -160 452 -210
206 -71 303 -87 544 -87 165 0 228 4 295 18 154 33 215 55 280 103 49 36 64
43 76 33 8 -6 14 -15 14 -19 0 -13 -184 -222 -251 -285 -255 -241 -529 -384
-844 -442 -125 -23 -386 -22 -520 1 -295 53 -443 110 -900 350 -345 182 -545
252 -745 263 -208 11 -353 -32 -640 -188 -102 -55 -234 -124 -295 -154 -483
-234 -905 -188 -1555 170 -437 241 -578 285 -913 285 -261 0 -447 -42 -653
-149 l-94 -48 -15 23 c-8 13 -15 25 -15 27 0 2 59 58 131 123 458 415 789 597
1164 638 86 9 303 -4 410 -24z m2447 -1391 c149 -29 216 -57 573 -234 360
-179 469 -223 622 -254 315 -65 618 -21 806 117 44 32 50 33 64 19 15 -14 11
-21 -36 -76 -192 -221 -485 -437 -741 -544 -290 -122 -581 -121 -876 3 -51 21
-181 87 -290 148 -268 148 -343 184 -462 226 -163 57 -252 70 -452 70 -239 0
-393 -31 -551 -110 -61 -30 -66 -31 -76 -14 -10 15 11 37 170 173 276 236 383
312 549 392 227 109 444 135 700 84z"/>
</g>
</svg>