<svg width="371" height="371" viewBox="0 0 371 371" fill="none" xmlns="http://www.w3.org/2000/svg">
<circle cx="185.5" cy="185.5" r="185.5" fill="#3C5999"/>
<g clip-path="url(#clip0_2049_22)">
<path d="M116.256 217.933V217.667C116.256 197.4 130.686 180.867 151.796 180.867C155.003 180.867 157.942 181.4 160.882 181.933L177.449 161.667C169.967 158.467 161.416 156.867 152.063 156.867C115.455 156.6 89 184.333 89 217.933V218.2C89 232.067 93.5427 245.133 101.559 255.267L119.463 233.133C117.325 228.6 116.256 223.267 116.256 217.933Z" fill="white"/>
<path d="M186.802 209.933C187.336 212.6 187.603 215.267 187.603 217.933V218.2C187.603 238.467 173.174 255 152.063 255C145.917 255 140.573 253.667 135.763 251L114.92 267.8C125.074 274.733 137.634 279 151.796 279C188.405 279 214.859 251.533 214.859 217.933V217.667C214.859 208.333 212.722 199.8 209.248 192.067L186.802 209.933Z" fill="white"/>
<path d="M229.022 159.267C239.205 159.267 247.46 151.029 247.46 140.867C247.46 130.705 239.205 122.467 229.022 122.467C218.839 122.467 210.584 130.705 210.584 140.867C210.584 151.029 218.839 159.267 229.022 159.267Z" fill="white"/>
<path d="M272.579 107.8C278.334 107.8 283 103.144 283 97.4C283 91.6562 278.334 87 272.579 87C266.823 87 262.157 91.6562 262.157 97.4C262.157 103.144 266.823 107.8 272.579 107.8Z" fill="white"/>
</g>
<defs>
<clipPath id="clip0_2049_22">
<rect width="194" height="192" fill="white" transform="translate(89 87)"/>
</clipPath>
</defs>
</svg>
