<svg width="371" height="371" viewBox="0 0 371 371" fill="none" xmlns="http://www.w3.org/2000/svg">
<circle cx="185.5" cy="185.5" r="185.5" fill="white"/>
<path d="M92.5468 80.0003C92.1574 80.0073 91.7746 80.1019 91.4268 80.277C91.079 80.4522 90.7751 80.7035 90.5377 81.0122C90.3002 81.3209 90.1354 81.6791 90.0554 82.0602C89.9753 82.4413 89.9822 82.8355 90.0753 83.2137L146.105 310.012C146.214 310.454 146.437 310.86 146.753 311.188C147.068 311.517 147.465 311.757 147.902 311.883C148.34 312.01 148.803 312.019 149.245 311.91C149.687 311.801 150.093 311.577 150.421 311.261L318.98 149.125C319.308 148.809 319.548 148.413 319.674 147.975C319.801 147.537 319.809 147.074 319.7 146.632C319.591 146.19 319.367 145.784 319.051 145.456C318.735 145.128 318.338 144.889 317.9 144.763L93.3071 80.1014C93.06 80.0302 92.8038 79.9962 92.5468 80.0003ZM96.185 86.3259L312.146 148.502L150.065 304.407L96.185 86.3259Z" fill="black"/>
<path d="M204.905 112.336C204.564 112.328 204.224 112.389 203.906 112.513C203.588 112.637 203.298 112.823 203.052 113.059L118.812 194.15C118.484 194.466 118.245 194.863 118.119 195.3C117.993 195.738 117.984 196.201 118.094 196.643C118.204 197.084 118.428 197.49 118.743 197.817C119.059 198.145 119.456 198.384 119.893 198.51L232.116 230.855C232.554 230.981 233.016 230.989 233.458 230.88C233.899 230.771 234.304 230.547 234.632 230.232C234.96 229.917 235.199 229.521 235.326 229.084C235.452 228.647 235.462 228.184 235.353 227.742L207.37 114.307C207.233 113.753 206.917 113.259 206.472 112.903C206.026 112.547 205.476 112.347 204.905 112.336ZM203.41 119.915L229.245 224.63L125.647 194.771L203.41 119.915Z" fill="black"/>
<path d="M163.049 152.469C162.66 152.476 162.277 152.571 161.929 152.746C161.582 152.921 161.278 153.172 161.04 153.481C160.803 153.79 160.638 154.148 160.558 154.529C160.478 154.91 160.485 155.304 160.578 155.682L174.483 212.027C174.592 212.47 174.816 212.876 175.131 213.204C175.447 213.533 175.844 213.772 176.282 213.899C176.72 214.025 177.183 214.034 177.625 213.925C178.068 213.815 178.473 213.591 178.801 213.274L220.655 172.934C220.983 172.618 221.222 172.222 221.347 171.784C221.473 171.346 221.482 170.883 221.372 170.441C221.262 170 221.038 169.594 220.721 169.267C220.405 168.939 220.009 168.7 219.571 168.575L163.81 152.57C163.563 152.499 163.306 152.465 163.049 152.469ZM166.685 158.788L213.822 172.316L178.438 206.416L166.685 158.788Z" fill="black"/>
<path d="M149.241 96.1864C148.899 96.1793 148.559 96.2398 148.241 96.3643C147.923 96.4889 147.633 96.6751 147.387 96.9122L105.533 137.25C105.205 137.566 104.967 137.963 104.841 138.4C104.715 138.838 104.707 139.301 104.816 139.743C104.926 140.185 105.151 140.59 105.467 140.917C105.783 141.245 106.18 141.484 106.617 141.609L162.369 157.616C162.807 157.742 163.269 157.751 163.711 157.641C164.152 157.531 164.557 157.308 164.885 156.992C165.213 156.676 165.452 156.28 165.578 155.843C165.704 155.406 165.713 154.943 165.603 154.502L151.705 98.1594C151.569 97.6047 151.254 97.1104 150.808 96.7532C150.363 96.3961 149.812 96.1983 149.241 96.1864ZM147.748 103.766L159.494 151.394L112.369 137.865L147.748 103.766ZM260.756 128.306C260.415 128.299 260.076 128.36 259.758 128.484C259.44 128.609 259.151 128.795 258.905 129.032L217.047 169.367C216.718 169.683 216.479 170.08 216.353 170.518C216.227 170.956 216.218 171.419 216.328 171.861C216.438 172.304 216.662 172.709 216.979 173.037C217.295 173.365 217.693 173.603 218.131 173.729L273.885 189.733C274.322 189.859 274.785 189.868 275.226 189.758C275.668 189.649 276.073 189.425 276.401 189.109C276.728 188.794 276.967 188.397 277.093 187.96C277.219 187.523 277.228 187.061 277.119 186.619L263.223 130.277C263.086 129.722 262.771 129.228 262.325 128.871C261.879 128.514 261.327 128.317 260.756 128.306ZM259.263 135.886L271.009 183.516L223.884 169.987L259.263 135.888V135.886ZM176.9 208.86C176.263 208.884 175.658 209.141 175.2 209.583L133.346 249.923C133.018 250.239 132.78 250.636 132.654 251.073C132.528 251.511 132.519 251.974 132.629 252.416C132.739 252.858 132.964 253.263 133.28 253.591C133.596 253.918 133.993 254.157 134.43 254.283L190.194 270.287C190.631 270.412 191.093 270.42 191.534 270.311C191.975 270.201 192.379 269.977 192.706 269.662C193.033 269.347 193.272 268.951 193.398 268.515C193.525 268.078 193.534 267.616 193.426 267.175L179.518 210.83C179.375 210.251 179.037 209.738 178.56 209.379C178.082 209.02 177.496 208.836 176.9 208.86ZM175.563 216.439L187.318 264.07L140.182 250.541L175.563 216.439Z" fill="black"/>
</svg>
