<svg version="1.1" id="Layer_1" xmlns="http://www.w3.org/2000/svg" xmlns:xlink="http://www.w3.org/1999/xlink" x="0px" y="0px"
	 width="100%" viewBox="0 0 225 225" enable-background="new 0 0 225 225" xml:space="preserve">
<path fill="#FFFEFF" opacity="1.000000" stroke="none" 
	d="
M226.000000,117.000000 
	C226.000000,153.315552 226.000000,189.631088 226.000000,225.973328 
	C151.054504,225.973328 76.109009,225.973328 1.081752,225.973328 
	C1.081752,151.091293 1.081752,76.182472 1.081752,1.136824 
	C75.999847,1.136824 150.999878,1.136824 226.000000,1.136824 
	C226.000000,37.431534 226.000000,73.747108 225.647308,110.309349 
	C224.556732,104.486015 224.221207,98.334274 223.007660,92.360909 
	C218.901459,72.149338 210.102142,54.214172 195.973267,38.662254 
	C194.929428,37.574047 194.019363,36.762695 192.968491,35.650784 
	C190.900406,33.569836 188.973129,31.789444 186.893219,29.708067 
	C184.571671,27.840136 182.402725,26.273191 180.039886,24.450066 
	C178.308990,23.099903 176.771973,22.005924 175.045624,20.617439 
	C161.699112,11.936245 147.728088,5.682362 131.718155,3.729135 
	C129.284866,3.363855 127.154564,3.247266 124.641388,2.986880 
	C121.494705,2.617536 118.730881,2.391990 115.528305,2.102012 
	C111.745125,2.331287 108.400719,2.624992 104.628128,2.860203 
	C102.779327,2.918991 101.358711,3.036274 99.535385,3.099252 
	C96.761642,3.437802 94.390602,3.830656 91.640335,4.208556 
	C88.195213,5.143484 85.129333,6.093367 81.669495,6.988080 
	C71.685410,11.335985 61.522991,14.813725 52.616413,20.322063 
	C29.345856,34.713909 14.554343,55.869881 6.470242,82.232605 
	C6.125555,83.853233 6.002706,85.209785 5.620105,86.865585 
	C4.629439,91.426865 3.898525,95.688889 3.105451,100.348969 
	C2.747393,102.796852 2.451496,104.846680 2.099205,107.351791 
	C2.269126,111.225159 2.495441,114.643257 2.745966,118.515800 
	C3.257615,123.972221 3.745054,128.974197 4.260076,134.351837 
	C5.247171,138.487946 6.206684,142.248367 7.155547,146.372467 
	C8.055373,149.169525 8.965850,151.602921 9.917425,154.337265 
	C10.248545,154.827698 10.538566,155.017166 10.805486,155.227936 
	C10.782384,155.249237 10.762905,155.308990 10.664005,155.675964 
	C24.352779,188.417084 47.873829,209.993973 81.995033,220.388977 
	C86.212997,221.367203 90.121391,222.111954 94.416245,222.973053 
	C102.508087,223.616791 110.213463,224.144211 118.352676,224.774826 
	C124.205666,224.025620 129.624817,223.173203 135.460968,222.267548 
	C138.927261,221.629349 141.976532,221.044357 145.404541,220.365112 
	C187.652039,205.110367 214.460114,176.582062 223.591080,132.444550 
	C224.645370,127.348358 225.208939,122.150650 226.000000,117.000000 
z"/>
<path fill="#FE3AF3" opacity="1.000000" stroke="none" 
	d="
M226.000000,116.571533 
	C225.208939,122.150650 224.645370,127.348358 223.591080,132.444550 
	C214.460114,176.582062 187.652039,205.110367 145.421204,219.968903 
	C153.815323,204.915848 156.530151,188.965698 156.211105,171.898880 
	C155.898361,155.167633 156.487427,138.318970 158.191650,121.676575 
	C160.231415,101.757454 164.037384,82.080063 170.752655,63.026241 
	C175.194946,50.421761 182.759552,41.819752 196.107040,38.939110 
	C210.102142,54.214172 218.901459,72.149338 223.007660,92.360909 
	C224.221207,98.334274 224.556732,104.486015 225.647308,110.778008 
	C226.000000,112.714355 226.000000,114.428719 226.000000,116.571533 
z"/>
<path fill="#4480FF" opacity="1.000000" stroke="none" 
	d="
M81.685455,220.155487 
	C47.873829,209.993973 24.352779,188.417084 11.014343,155.699341 
	C14.166438,157.246262 16.969070,159.010132 19.555586,161.048279 
	C33.870445,172.328217 47.627003,172.403824 60.000652,156.703827 
	C66.485252,148.476028 71.097008,139.596558 74.076355,129.566589 
	C80.258453,108.754547 86.975700,88.102112 93.355049,67.347824 
	C99.044479,48.838074 106.268021,31.084734 117.788872,15.312231 
	C120.245155,11.949480 122.411705,8.653253 127.028755,7.725143 
	C128.869583,7.355104 130.367249,5.277886 132.021133,3.977827 
	C147.728088,5.682362 161.699112,11.936245 174.595398,20.646500 
	C167.863708,20.337000 161.730133,22.481598 158.559357,27.607742 
	C152.948273,36.679085 147.534561,46.234814 144.279022,56.311749 
	C139.932892,69.764450 137.045258,83.797081 134.763336,97.781685 
	C131.577972,117.302902 129.593704,137.018295 126.962288,156.632721 
	C126.064995,163.321060 124.797829,169.961090 123.633415,176.611603 
	C123.183327,179.182236 122.107117,181.714539 122.071442,184.274826 
	C121.848228,200.294067 108.675186,214.593002 96.852562,218.047821 
	C92.005470,219.464249 86.753334,219.494598 81.685455,220.155487 
z"/>
<path fill="#3CFBC6" opacity="1.000000" stroke="none" 
	d="
M105.056305,2.918698 
	C108.400719,2.624992 111.745125,2.331287 115.525085,2.457495 
	C114.636139,4.209965 113.390244,5.635079 111.963264,6.846960 
	C110.732933,7.891840 109.041618,8.465511 107.990143,9.638406 
	C96.609215,22.333488 89.177620,37.577564 82.434525,52.857384 
	C72.141090,76.182259 63.631828,100.289452 53.998318,123.914963 
	C52.114510,128.534882 49.294647,133.294403 45.634697,136.567322 
	C36.118019,145.077621 26.807653,148.838760 15.212826,140.669800 
	C11.716315,138.206390 7.901499,136.194748 4.232492,133.976166 
	C3.745054,128.974197 3.257615,123.972221 2.849104,118.223648 
	C5.244899,118.883171 7.621548,120.201263 9.860633,121.721916 
	C11.821509,123.053642 13.417326,125.326477 15.537748,125.952087 
	C26.628490,129.224304 38.382732,123.880463 44.298912,112.015999 
	C51.251736,98.072632 57.276512,83.666801 63.716232,69.467186 
	C70.150833,55.278847 76.287811,40.943836 83.149704,26.964918 
	C88.056557,16.968788 97.013969,10.270128 105.056305,2.918698 
z"/>
<path fill="#3CD7D7" opacity="1.000000" stroke="none" 
	d="
M4.260075,134.351837 
	C7.901499,136.194748 11.716315,138.206390 15.212826,140.669800 
	C26.807653,148.838760 36.118019,145.077621 45.634697,136.567322 
	C49.294647,133.294403 52.114510,128.534882 53.998318,123.914963 
	C63.631828,100.289452 72.141090,76.182259 82.434525,52.857384 
	C89.177620,37.577564 96.609215,22.333488 107.990143,9.638406 
	C109.041618,8.465511 110.732933,7.891840 111.963264,6.846960 
	C113.390244,5.635079 114.636139,4.209965 115.963852,2.521926 
	C118.730881,2.391990 121.494705,2.617536 124.472931,3.281487 
	C121.725510,5.741639 117.905396,7.154932 115.960884,9.897868 
	C109.837074,18.536160 102.925995,27.071619 99.024086,36.738495 
	C89.852585,59.460606 81.905418,82.700844 74.138519,105.957077 
	C69.404526,120.131958 65.679642,134.623138 56.957394,147.091980 
	C46.808250,161.600616 32.928699,163.873428 18.753393,153.492935 
	C15.050060,150.781006 11.037003,148.492035 7.166196,146.008804 
	C6.206684,142.248367 5.247171,138.487946 4.260075,134.351837 
z"/>
<path fill="#B058F8" opacity="1.000000" stroke="none" 
	d="
M187.045837,30.009056 
	C188.973129,31.789444 190.900406,33.569836 192.505112,35.668518 
	C188.367218,36.574368 183.329865,35.826241 180.960358,37.994095 
	C173.123138,45.164318 166.205795,53.510330 163.236801,64.004333 
	C160.358902,74.176338 157.370514,84.498436 156.252625,94.949501 
	C153.877609,117.153244 152.713776,139.485718 150.998596,161.761200 
	C150.033295,174.298096 149.313004,186.869675 147.796524,199.342239 
	C146.930420,206.465897 144.253448,213.172958 138.451126,218.132675 
	C137.105377,219.282974 136.168823,220.912018 135.043976,222.320770 
	C129.624817,223.173203 124.205666,224.025620 118.443787,224.461792 
	C129.510818,218.442856 135.350800,208.592972 137.093582,196.661240 
	C139.887695,177.531662 141.878189,158.279587 143.952332,139.051666 
	C145.514114,124.573570 146.034500,109.957146 148.169724,95.573212 
	C151.110107,75.765434 156.511780,56.670605 168.348495,39.922909 
	C173.041641,33.282593 178.593277,29.135603 187.045837,30.009056 
z"/>
<path fill="#6575FD" opacity="1.000000" stroke="none" 
	d="
M81.995033,220.388977 
	C86.753334,219.494598 92.005470,219.464249 96.852562,218.047821 
	C108.675186,214.593002 121.848228,200.294067 122.071442,184.274826 
	C122.107117,181.714539 123.183327,179.182236 123.633415,176.611603 
	C124.797829,169.961090 126.064995,163.321060 126.962288,156.632721 
	C129.593704,137.018295 131.577972,117.302902 134.763336,97.781685 
	C137.045258,83.797081 139.932892,69.764450 144.279022,56.311749 
	C147.534561,46.234814 152.948273,36.679085 158.559357,27.607742 
	C161.730133,22.481598 167.863708,20.337000 174.784729,20.941004 
	C176.771973,22.005924 178.308990,23.099903 179.773422,24.771160 
	C174.148895,25.961508 168.694122,27.138697 165.443604,32.166420 
	C160.774094,39.388977 155.764771,46.533283 152.223206,54.313122 
	C145.587662,68.889496 142.726669,84.585823 140.932251,100.440529 
	C138.572708,121.288429 136.615692,142.187790 133.871811,162.984039 
	C132.297089,174.919128 130.182800,186.874557 127.075203,198.490112 
	C123.964211,210.118301 116.940262,219.040619 104.250290,221.702042 
	C100.909676,222.402664 97.440125,222.488525 94.029785,222.856689 
	C90.121391,222.111954 86.212997,221.367203 81.995033,220.388977 
z"/>
<path fill="#FFC31D" opacity="1.000000" stroke="none" 
	d="
M6.692079,81.968529 
	C14.554343,55.869881 29.345856,34.713909 52.616413,20.322063 
	C61.522991,14.813725 71.685410,11.335985 81.551819,7.303118 
	C75.646484,14.571482 68.614571,20.893446 63.465843,28.491526 
	C53.697609,42.906708 45.008339,58.053032 35.537430,72.977859 
	C32.049061,75.206627 28.959482,77.457840 25.725039,79.477005 
	C19.789082,83.182632 13.462238,84.394531 6.692079,81.968529 
z"/>
<path fill="#8569FB" opacity="1.000000" stroke="none" 
	d="
M94.416245,222.973038 
	C97.440125,222.488525 100.909676,222.402664 104.250290,221.702042 
	C116.940262,219.040619 123.964211,210.118301 127.075203,198.490112 
	C130.182800,186.874557 132.297089,174.919128 133.871811,162.984039 
	C136.615692,142.187790 138.572708,121.288429 140.932251,100.440529 
	C142.726669,84.585823 145.587662,68.889496 152.223206,54.313122 
	C155.764771,46.533283 160.774094,39.388977 165.443604,32.166420 
	C168.694122,27.138697 174.148895,25.961508 179.967300,25.027342 
	C182.402725,26.273191 184.571671,27.840136 186.893219,29.708069 
	C178.593277,29.135603 173.041641,33.282593 168.348495,39.922909 
	C156.511780,56.670605 151.110107,75.765434 148.169724,95.573212 
	C146.034500,109.957146 145.514114,124.573570 143.952332,139.051666 
	C141.878189,158.279587 139.887695,177.531662 137.093582,196.661240 
	C135.350800,208.592972 129.510818,218.442856 118.009949,224.358582 
	C110.213463,224.144211 102.508087,223.616791 94.416245,222.973038 
z"/>
<path fill="#3FA6ED" opacity="1.000000" stroke="none" 
	d="
M7.155546,146.372467 
	C11.037003,148.492035 15.050060,150.781006 18.753393,153.492935 
	C32.928699,163.873428 46.808250,161.600616 56.957394,147.091980 
	C65.679642,134.623138 69.404526,120.131958 74.138519,105.957077 
	C81.905418,82.700844 89.852585,59.460606 99.024086,36.738495 
	C102.925995,27.071619 109.837074,18.536160 115.960884,9.897868 
	C117.905396,7.154932 121.725510,5.741639 124.855797,3.425284 
	C127.154564,3.247266 129.284866,3.363855 131.718155,3.729136 
	C130.367249,5.277886 128.869583,7.355104 127.028755,7.725143 
	C122.411705,8.653253 120.245155,11.949480 117.788872,15.312231 
	C106.268021,31.084734 99.044479,48.838074 93.355049,67.347824 
	C86.975700,88.102112 80.258453,108.754547 74.076355,129.566589 
	C71.097008,139.596558 66.485252,148.476028 60.000652,156.703827 
	C47.627003,172.403824 33.870445,172.328217 19.555586,161.048279 
	C16.969070,159.010132 14.166438,157.246262 11.113243,155.332367 
	C10.762905,155.308990 10.782384,155.249237 10.754753,154.959290 
	C10.443522,154.458328 10.159924,154.247314 9.876326,154.036301 
	C8.965850,151.602921 8.055373,149.169525 7.155546,146.372467 
z"/>
<path fill="#FD3BF2" opacity="1.000000" stroke="none" 
	d="
M35.870884,72.895653 
	C45.008339,58.053032 53.697609,42.906708 63.465843,28.491526 
	C68.614571,20.893446 75.646484,14.571482 81.945770,7.358287 
	C85.129333,6.093367 88.195213,5.143484 91.587509,4.534986 
	C91.124077,5.920455 90.477196,7.125223 89.517799,7.978710 
	C86.555267,10.614225 82.703659,12.600928 80.585747,15.768058 
	C74.763313,24.474958 69.591034,33.621578 64.310814,42.681229 
	C63.436348,44.181610 63.313976,46.120331 62.778763,48.076805 
	C62.713482,48.297127 62.620083,48.747116 62.304222,48.857296 
	C58.621323,55.408932 55.359547,61.908123 51.864803,68.279533 
	C45.092918,80.625633 38.737610,93.266129 26.788471,101.805084 
	C20.926579,105.994034 15.007641,106.588348 8.684196,103.303596 
	C6.778922,102.313889 5.002863,101.075424 3.167611,99.950920 
	C3.898525,95.688889 4.629439,91.426865 6.019161,86.952271 
	C10.028734,87.821678 13.399545,89.854103 16.726011,89.783951 
	C23.261988,89.646095 34.065823,79.506897 35.870884,72.895653 
z"/>
<path fill="#77C7D4" opacity="1.000000" stroke="none" 
	d="
M62.620083,48.747116 
	C62.620083,48.747116 62.713482,48.297127 63.122627,48.014931 
	C70.071350,38.347710 76.541756,28.913189 83.198174,19.611774 
	C84.904099,17.227970 87.115837,15.180125 89.239334,13.127021 
	C92.743858,9.738685 96.365692,6.471692 99.938087,3.153557 
	C101.358711,3.036274 102.779327,2.918991 104.628128,2.860203 
	C97.013969,10.270128 88.056557,16.968788 83.149704,26.964918 
	C76.287811,40.943836 70.150833,55.278847 63.716232,69.467186 
	C57.276512,83.666801 51.251736,98.072632 44.298912,112.015999 
	C38.382732,123.880463 26.628490,129.224304 15.537748,125.952087 
	C13.417326,125.326477 11.821509,123.053642 9.860633,121.721916 
	C7.621548,120.201263 5.244899,118.883171 2.824893,117.769196 
	C2.495441,114.643257 2.269126,111.225159 2.431150,107.419594 
	C3.515090,107.472450 4.354352,107.783318 4.885031,108.372261 
	C15.040586,119.642433 26.549669,115.644157 34.576042,106.466949 
	C49.067989,89.897102 58.851147,70.696739 62.620083,48.747116 
z"/>
<path fill="#D44AF6" opacity="1.000000" stroke="none" 
	d="
M135.460968,222.267548 
	C136.168823,220.912018 137.105377,219.282974 138.451126,218.132675 
	C144.253448,213.172958 146.930420,206.465897 147.796524,199.342239 
	C149.313004,186.869675 150.033295,174.298096 150.998596,161.761200 
	C152.713776,139.485718 153.877609,117.153244 156.252625,94.949501 
	C157.370514,84.498436 160.358902,74.176338 163.236801,64.004333 
	C166.205795,53.510330 173.123138,45.164318 180.960358,37.994095 
	C183.329865,35.826241 188.367218,36.574368 192.645920,35.969078 
	C194.019363,36.762695 194.929428,37.574047 195.973267,38.662254 
	C182.759552,41.819752 175.194946,50.421761 170.752655,63.026241 
	C164.037384,82.080063 160.231415,101.757454 158.191650,121.676575 
	C156.487427,138.318970 155.898361,155.167633 156.211105,171.898880 
	C156.530151,188.965698 153.815323,204.915848 145.042480,220.063141 
	C141.976532,221.044357 138.927261,221.629349 135.460968,222.267548 
z"/>
<path fill="#BB83E5" opacity="1.000000" stroke="none" 
	d="
M62.304222,48.857296 
	C58.851147,70.696739 49.067989,89.897102 34.576042,106.466949 
	C26.549669,115.644157 15.040586,119.642433 4.885031,108.372261 
	C4.354352,107.783318 3.515090,107.472450 2.487544,106.964325 
	C2.451496,104.846680 2.747393,102.796852 3.105451,100.348969 
	C5.002863,101.075424 6.778922,102.313889 8.684196,103.303596 
	C15.007641,106.588348 20.926579,105.994034 26.788471,101.805084 
	C38.737610,93.266129 45.092918,80.625633 51.864803,68.279533 
	C55.359547,61.908123 58.621323,55.408932 62.304222,48.857296 
z"/>
<path fill="#BB83E5" opacity="1.000000" stroke="none" 
	d="
M99.535385,3.099252 
	C96.365692,6.471692 92.743858,9.738685 89.239334,13.127021 
	C87.115837,15.180125 84.904099,17.227970 83.198174,19.611774 
	C76.541756,28.913189 70.071350,38.347710 63.187908,47.794609 
	C63.313976,46.120331 63.436348,44.181610 64.310814,42.681229 
	C69.591034,33.621578 74.763313,24.474958 80.585747,15.768058 
	C82.703659,12.600928 86.555267,10.614225 89.517799,7.978710 
	C90.477196,7.125223 91.124077,5.920455 91.966736,4.549941 
	C94.390602,3.830656 96.761642,3.437802 99.535385,3.099252 
z"/>
<path fill="#FD8587" opacity="1.000000" stroke="none" 
	d="
M35.537430,72.977859 
	C34.065823,79.506897 23.261988,89.646095 16.726011,89.783951 
	C13.399545,89.854103 10.028734,87.821678 6.278913,86.653023 
	C6.002706,85.209785 6.125555,83.853233 6.470242,82.232605 
	C13.462238,84.394531 19.789082,83.182632 25.725039,79.477005 
	C28.959482,77.457840 32.049061,75.206627 35.537430,72.977859 
z"/>
<path fill="#4480FF" opacity="1.000000" stroke="none" 
	d="
M9.917424,154.337265 
	C10.159924,154.247314 10.443522,154.458328 10.777855,154.937988 
	C10.538566,155.017166 10.248545,154.827698 9.917424,154.337265 
z"/>
</svg>